solid model
 facet normal 0.0 0.0 1.0
  outer loop
   vertex 2.01 2.01 2.01
   vertex 0.010000000000000009 2.01 2.01
   vertex 0.010000000000000009 0.010000000000000009 2.01
  endloop
 endfacet
 facet normal 0.0 -0.0 1.0
  outer loop
   vertex 2.01 2.01 2.01
   vertex 0.010000000000000009 0.010000000000000009 2.01
   vertex 2.01 0.010000000000000009 2.01
  endloop
 endfacet
 facet normal 0.0 -1.0 0.0
  outer loop
   vertex 2.01 0.010000000000000009 0.010000000000000009
   vertex 2.01 0.010000000000000009 2.01
   vertex 0.010000000000000009 0.010000000000000009 2.01
  endloop
 endfacet
 facet normal 0.0 -1.0 0.0
  outer loop
   vertex 2.01 0.010000000000000009 0.010000000000000009
   vertex 0.010000000000000009 0.010000000000000009 2.01
   vertex 0.010000000000000009 0.010000000000000009 0.010000000000000009
  endloop
 endfacet
 facet normal -1.0 -0.0 -0.0
  outer loop
   vertex 0.010000000000000009 0.010000000000000009 0.010000000000000009
   vertex 0.010000000000000009 0.010000000000000009 2.01
   vertex 0.010000000000000009 2.01 2.01
  endloop
 endfacet
 facet normal -1.0 -0.0 0.0
  outer loop
   vertex 0.010000000000000009 0.010000000000000009 0.010000000000000009
   vertex 0.010000000000000009 2.01 2.01
   vertex 0.010000000000000009 2.01 0.010000000000000009
  endloop
 endfacet
 facet normal 0.0 0.0 -1.0
  outer loop
   vertex 0.010000000000000009 2.01 0.010000000000000009
   vertex 2.01 2.01 0.010000000000000009
   vertex 2.01 0.010000000000000009 0.010000000000000009
  endloop
 endfacet
 facet normal 0.0 0.0 -1.0
  outer loop
   vertex 0.010000000000000009 2.01 0.010000000000000009
   vertex 2.01 0.010000000000000009 0.010000000000000009
   vertex 0.010000000000000009 0.010000000000000009 0.010000000000000009
  endloop
 endfacet
 facet normal 1.0 -0.0 0.0
  outer loop
   vertex 2.01 2.01 0.010000000000000009
   vertex 2.01 2.01 2.01
   vertex 2.01 0.010000000000000009 2.01
  endloop
 endfacet
 facet normal 1.0 -0.0 0.0
  outer loop
   vertex 2.01 2.01 0.010000000000000009
   vertex 2.01 0.010000000000000009 2.01
   vertex 2.01 0.010000000000000009 0.010000000000000009
  endloop
 endfacet
 facet normal 0.0 1.0 0.0
  outer loop
   vertex 0.010000000000000009 2.01 0.010000000000000009
   vertex 0.010000000000000009 2.01 2.01
   vertex 2.01 2.01 2.01
  endloop
 endfacet
 facet normal 0.0 1.0 -0.0
  outer loop
   vertex 0.010000000000000009 2.01 0.010000000000000009
   vertex 2.01 2.01 2.01
   vertex 2.01 2.01 0.010000000000000009
  endloop
 endfacet
endsolid model
